<svg width="253" height="49" viewBox="0 0 253 49" fill="none" xmlns="http://www.w3.org/2000/svg">
<path d="M74.8673 11.1262C49.051 11.1262 34.0775 39.4795 0 39.4795V48H253V1C182.78 1 159.545 30.2739 137.343 30.2739C115.141 30.2739 100.684 11.1262 74.8673 11.1262Z" fill="#4D81FF" fill-opacity="0.3"/>
<path d="M0 38.7778C24.2179 38.7778 47.4053 29.0556 60.2872 29.0556C73.169 29.0556 84.5051 34.1037 99.4481 34.1037C114.391 34.1037 144.277 19.3334 165.919 19.3334C187.56 19.3334 209.202 29.0556 253 29.0556" stroke="#80A5FF" stroke-width="2"/>
<path d="M60.2872 29.6112C47.4053 29.6112 24.2179 39.3334 0 39.3334V48.5001H253V29.6112C209.202 29.6112 187.56 19.8889 165.919 19.8889C144.277 19.8889 114.391 34.6593 99.4481 34.6593C84.5051 34.6593 73.169 29.6112 60.2872 29.6112Z" fill="#A5BFFF"/>
<path d="M1 40C34.9429 40 49.8571 11.2632 75.5714 11.2632C101.286 11.2632 115.686 30.6699 137.8 30.6699C159.914 30.6699 183.057 1 253 1" stroke="#4D81FF" stroke-width="2"/>
</svg>
